<?xml version="1.0" encoding="UTF-8" standalone="no"?>
<svg xmlns="http://www.w3.org/2000/svg" xmlns:svg="http://www.w3.org/2000/svg" baseProfile="tiny-ps" id="Warstwa_2" data-name="Warstwa 2" viewBox="0 0 256 256" version="1.2" width="256" height="256">
  <defs id="defs1">
    <style id="style1">
      .cls-1 {
        fill: #e74143;
        fill-rule: evenodd;
      }
    </style>
  </defs>
  <g id="Warstwa_1-2" data-name="Warstwa 1" transform="scale(2.653674)">
    <g id="g2">
      <path class="cls-1" d="m 51.47,76.87 c 0.46,1.84 1.77,3.48 3.46,4.17 2.52,1.04 5.77,0.01 7.24,-2.29 0.64,-1 0.93,-2.27 0.84,-3.56 -3.61,1.1 -7.43,1.68 -11.33,1.68 -0.08,0 -0.15,0 -0.23,0 z" id="path1"></path>
      <path class="cls-1" d="M 93.52,32.4 C 93.06,31.06 91.49,30.55 90.14,30.96 86.5,32.08 82.58,31.39 79.84,28.79 78.82,27.82 78.06,26.67 77.55,25.43 76.63,23.17 74.31,21.19 71.88,21.23 67.69,21.29 63.72,19.94 60.71,17.08 57.01,13.56 55.5,8.47 56.11,3.19 56.27,1.85 55.43,0.54 54.09,0.38 52.12,0.13 50.11,0 48.07,0 21.52,0 0,21.52 0,48.07 c 0,26.55 21.52,48.07 48.07,48.07 26.55,0 48.07,-21.52 48.07,-48.07 0,-5.49 -0.92,-10.76 -2.61,-15.67 z m -36.09,9.39 c 0.82,-2.63 3.04,-4.66 5.66,-5.16 3.37,-0.65 7,1.36 8.25,4.56 0.97,2.48 0.43,5.44 -1.36,7.53 -0.39,0.45 -0.94,0.71 -1.53,0.71 -0.05,0 -0.11,0 -0.16,0 -0.64,-0.05 -1.21,-0.39 -1.54,-0.94 -0.46,-0.75 -0.39,-1.69 0.19,-2.35 0.83,-0.95 1.11,-2.39 0.68,-3.5 -0.54,-1.39 -2.3,-2.37 -3.77,-2.08 -1.17,0.22 -2.24,1.22 -2.6,2.43 -0.25,0.84 -1.01,1.4 -1.89,1.41 -0.64,-0.02 -1.23,-0.29 -1.62,-0.81 -0.39,-0.52 -0.5,-1.18 -0.3,-1.8 z M 35.39,30.75 c 0.82,-2.63 3.04,-4.66 5.66,-5.16 3.38,-0.64 7,1.36 8.25,4.56 0.97,2.49 0.43,5.44 -1.36,7.54 -0.39,0.45 -0.94,0.71 -1.53,0.71 -0.05,0 -0.11,0 -0.16,0 -0.64,-0.05 -1.21,-0.39 -1.54,-0.94 v 0 c -0.46,-0.75 -0.38,-1.69 0.19,-2.35 0.84,-0.96 1.12,-2.37 0.68,-3.49 -0.55,-1.42 -2.28,-2.37 -3.77,-2.08 -1.19,0.23 -2.23,1.21 -2.6,2.43 -0.25,0.83 -1.01,1.4 -1.89,1.41 -0.63,0.04 -1.23,-0.29 -1.62,-0.81 -0.39,-0.52 -0.5,-1.18 -0.31,-1.8 z m 42.27,35.89 c -3.06,3.02 -6.75,5.43 -10.8,7.16 0.45,2.5 0.01,5.07 -1.31,7.12 -1.79,2.79 -5.06,4.53 -8.52,4.53 -1.27,0 -2.48,-0.24 -3.62,-0.7 C 50.11,83.4 47.77,80.19 47.34,76.62 42.75,76.09 38.4,74.71 34.56,72.56 21.09,65.01 13.58,47.88 17.11,32.72 c 0.13,-0.54 0.47,-1.02 0.95,-1.3 0.47,-0.28 1.03,-0.35 1.56,-0.2 1.03,0.29 1.64,1.33 1.4,2.35 -3.18,13.51 3.49,28.77 15.5,35.5 12.01,6.73 28.51,4.44 38.37,-5.33 0.75,-0.74 1.95,-0.75 2.73,-0.03 0.41,0.37 0.63,0.88 0.64,1.43 0.01,0.55 -0.21,1.1 -0.61,1.49 z" id="path2"></path>
    </g>
  </g>
  <title>Title</title>
</svg>
